# xmcd
#
# Track frame offsets:
#	150
#	14740
#	29977
#	42657
#	55250
#	67725
#	81487
#	95585
#	109400
#	123237
#	138180
#	152400
#	167202
#	180360
#	193025
#	207367
#	220417
#	232882
#	246200
#	258267
#	271417
#	286295
#	299515
#	312592
#
# Disc length: 4345 seconds
# Revision: 0
# Processed by: cddbd v1.5.2PL0 Copyright (c) Steve Scherf et al.
# Submitted via: dBpowerAMP V12.0
#
DISCID=7210f718
DTITLE=Washboard Sam - Vol. 6 1941 - 1942
DYEAR=1994
DGENRE=Blues
TTITLE0=Life Is Just a Book
TTITLE1=I'm Not the Lad
TTITLE2=My Feet Jumped Salty
TTITLE3=Flying Crow Blues
TTITLE4=Levee Camp Blues
TTITLE5=I'm Feeling Low Down
TTITLE6=Brown and Yellow Woman Blues
TTITLE7=She Belongs to the Devil
TTITLE8=Let Me Play Your Vendor
TTITLE9=Broadcast Blues
TTITLE10=Gonna Hit the Highway
TTITLE11=I've Been Treated Wrong
TTITLE12=Evil Blues
TTITLE13=Get Down Brother
TTITLE14=Lover's Lane Blues
TTITLE15=You Stole My Love
TTITLE16=Rockin' My Blues Away
TTITLE17=Good Old Cabbage Greens
TTITLE18=River Hip Mama
TTITLE19=Do That Shake Dance
TTITLE20=How Can You Love Me
TTITLE21=Stop and Fix It
TTITLE22=Don't Have to Sing the Blues
TTITLE23=Red River Dam Blues
EXTD=
EXTT0=
EXTT1=
EXTT2=
EXTT3=
EXTT4=
EXTT5=
EXTT6=
EXTT7=
EXTT8=
EXTT9=
EXTT10=
EXTT11=
EXTT12=
EXTT13=
EXTT14=
EXTT15=
EXTT16=
EXTT17=
EXTT18=
EXTT19=
EXTT20=
EXTT21=
EXTT22=
EXTT23=
PLAYORDER=
